<?xml version='1.0' encoding='utf-8'?>
<!DOCTYPE svg PUBLIC '-//W3C//DTD SVG 1.1//EN' 'http://www.w3.org/Graphics/SVG/1.1/DTD/svg11.dtd'>
<!-- Uploaded to: SVG Repo, www.svgrepo.com, Generator: SVG Repo Mixer Tools -->
<svg fill="#000000" height="800px" width="800px" version="1.1" xmlns="http://www.w3.org/2000/svg" viewBox="0 0 512 512" xmlns:xlink="http://www.w3.org/1999/xlink" enable-background="new 0 0 512 512">
  <g>
    <path d="m414.1,347.1l-84-287.5 56.5-6.1c11.7-1.3 20.2-11.8 18.9-23.5-1.3-11.7-11.7-20.3-23.5-18.9l-163.1,17.6c-11.7,1.3-20.2,11.8-18.9,23.5 1.2,10.9 10.4,19 21.2,19 0.8,0 1.5,0 2.3-0.1l63.6-6.8 85.6,293.6c-16.9,9.9-29.6,25.9-35.2,44.9h-163c-9.4-32.1-39.3-55.7-74.9-55.7-43.1,0-78,34.5-78,77 0,42.5 34.9,77 78,77 35.6,0 65.5-23.5 74.9-55.7h162.9c9.4,32.1 39.3,55.7 74.9,55.7 43.1,0 78-34.5 78-77 5.68434e-14-42-33.9-76.1-76.2-77z"/>
  </g>
</svg>